<?xml version="1.0" encoding="utf-8"?>
<!-- Generator: Adobe Illustrator 19.0.0, SVG Export Plug-In . SVG Version: 6.00 Build 0)  -->
<svg version="1.1" id="Calque_1" xmlns="http://www.w3.org/2000/svg" xmlns:xlink="http://www.w3.org/1999/xlink" x="0px" y="0px"
	 viewBox="0 0 287.3 287.3" style="enable-background:new 0 0 287.3 287.3;" xml:space="preserve">
<style type="text/css">
	.st0{fill:none;}
	.st1{fill:#D3A166;}
	.st2{fill:#1D1D1B;}
	.st3{fill:#DFB676;}
	.st4{fill:#FBBC43;}
	.st5{fill:#FFFFFF;}
	.st6{fill:#432918;}
	.st7{fill:#78CCDC;}
	.st8{fill:#F25194;}
</style>
<g>
	<path class="st0" d="M143.6,97.5c-25.4,0-46.1,20.7-46.1,46.1c0,25.4,20.7,46.1,46.1,46.1c25.4,0,46.1-20.7,46.1-46.1
		C189.8,118.2,169.1,97.5,143.6,97.5z"/>
	<path class="st1" d="M71.4,28.6c2.7,0,5.5,0,8.2-0.5c0.8-0.1,1.5-0.3,2.3-0.5c2-2.5,3.7-5,5.2-7.3c1.8-2.8,3.6-5.5,5.8-7.9
		c-11.1,4.3-21.5,10-31,16.8C65,28.7,68.2,28.6,71.4,28.6z"/>
	<path class="st1" d="M159.9,283.5c10.6-1.2,20.8-3.6,30.5-7.1c-1-0.6-1.9-1.3-2.9-1.9c-0.4-0.3-0.9-0.6-1.3-0.9
		c-11.9,3.3-24.6,4.4-37.8,4.4c-0.5,0-0.9,0-1.4,0c-7.1,3-13.6,4.4-19.5,4.4c-6.9,0-12.8-2-17.8-5.1c-14.1-2.2-28.4-8-41.2-22.7
		c-1.2-0.1-2.5-0.3-3.7-0.4c-3.2-0.3-6.3-0.7-9.4-1.2c24.2,19.5,54.9,31.2,88.3,31.2c1,0,2,0,3,0c-1.3-0.6-2.5-1.2-3.9-1.8
		c-0.3-0.1-0.2-0.6,0.1-0.6c1.4-0.4,2.7,0.1,4.1,0.7c1.8,0.7,3.3,1.3,5.2,1.2c1.6-0.1,3.3-0.3,4.7-1.2c1.4-1,1.5-2.4,2.6-3.5
		c0.6-0.6,1.5-0.3,1.8,0.5C161.7,281.2,161.1,282.5,159.9,283.5z"/>
	<path class="st1" d="M47.2,50c0.7-0.4,1.5-0.9,2.3-1.3C55,41.1,60.8,35.8,66,34.9c4.1-0.6,7.8-1.5,11.3-2.5c0.3-0.3,0.7-0.6,1-0.9
		c-1.2,0.1-2.4,0.1-3.3,0.1c-4,0.1-7.9,0-11.9,0.2c-2.2,0.2-4.6,0.5-6.6,1.4c-1.3,1.1-2.7,2.2-4,3.3c-0.3,0.5-0.6,1.1-0.8,1.8
		c-0.8,2.5-1.3,5.1-2.2,7.5C48.8,47.3,48.1,48.7,47.2,50z"/>
	<path class="st1" d="M235.3,235.6c1.7-1.3,4.1-1.5,6.1-2c2-0.4,4-0.8,6-1.3c2.5-0.6,5.2-1.3,7.5-2.7c1.6-2.1,3.2-4.2,4.7-6.4
		c0-0.4,0.1-0.9,0.1-1.3c-2.7,0.6-5.5,1.2-8.4,1.7c-0.9,0.2-1.8,0.3-2.8,0.5c-7.8,4.3-14.7,11.3-20.6,18.3c-1.2,3.1-2.3,6.3-3.4,9.5
		c-1,3-2,6-3.2,8.9c11.2-7.4,21.2-16.4,29.9-26.7c-1,0.3-2.1,0.7-3.1,0.9c-2.3,0.6-4.6,1-6.8,1.5c-1.8,0.4-3.6,1.1-5.5,1.1
		C234.7,237.8,234.4,236.3,235.3,235.6z"/>
	<path class="st1" d="M194,146c7.1-17.9-6.5-25.2-13.3-39.4c-6.8-14.2-25.3-10-37-14.1c-11.7-4.1-14.9,4.1-29.6,8.6
		c-14.7,4.6-17.7,27.7-21.5,42.5c-3.8,14.8,3.4,18.4,10.5,31.3c7.1,12.9,24.1,17,40.6,19.8c16.5,2.9,21.5-9.2,36.6-14.3
		C196.2,175,186.9,163.9,194,146z M143.6,192.6c-27,0-49-22-49-49c0-27,22-49,49-49c27,0,49,22,49,49
		C192.6,170.7,170.7,192.6,143.6,192.6z"/>
	<path class="st1" d="M123.2,4.4c1.8,0.6,3.5,1.4,5.3,2.1c2.3,1,4.8,2.1,7.6,3c2.4-0.2,4.8-0.4,7.5-0.4c4.5,0,8.8,0.4,12.8,1
		c4.7-1.1,9.3-3,13.6-4.7c-8.6-1.6-17.4-2.5-26.4-2.5C136.7,2.9,129.9,3.4,123.2,4.4z"/>
	<path class="st1" d="M281.2,113.7c-1.6,13.5,0,32.3,1.5,49.3c0.1,0.6,0.1,1.2,0.2,1.8c1-6.9,1.6-13.9,1.6-21.1
		C284.4,133.4,283.3,123.4,281.2,113.7z"/>
	<path class="st1" d="M224.6,34.6c0.9,0.6,1.4,1.3,2.6,1.5c1.3,0.3,2.7,0.4,4.1,0.5c1.2,0.1,2.5,0,3.8,0c-7.1-6.1-14.8-11.4-22.9-16
		c0,0,0,0.1,0.1,0.1c5.6,8.8,11.9,18.7,24.1,24.6c3.3,1.6,6.8,3.5,10.3,5.6c-0.1-1.3-0.5-2.8-0.9-4.2c-2.6-2.7-5.3-5.3-8-7.8
		c-1.2-0.2-2.4-0.3-3.6-0.3c-2.6-0.1-5.3-0.1-7.8-1c-1-0.4-3-1.7-2.2-2.9C224.3,34.6,224.4,34.5,224.6,34.6z"/>
	<path class="st1" d="M249,52.3C249,52.4,249,52.4,249,52.3c1.3,0.9,2.7,1.8,4,2.7c-1.4-1.7-2.8-3.3-4.2-5
		C248.9,50.9,248.9,51.6,249,52.3z"/>
	<path class="st1" d="M32.6,211.4c-4.7-5.4-8.9-11-12.2-17.2c-0.7-1.3-1.3-2.7-1.9-4c-1.2-1.4-2.3-2.7-3.3-4.1
		c-0.4,2.6-0.7,5.2-0.2,7.9c0.6,3.3,2.3,5.7,5.1,7.5c1.9,1.3,3.7,2.5,5,4.3c1.1,1.6-1.5,3.1-2.5,1.5c-1.6-2.5-4.7-3.6-6.6-5.8
		c-0.7-0.8-1.3-1.6-1.8-2.4c4.4,10.2,10,19.8,16.6,28.6c0.1-3.2,0.5-6,1-8.8C32.2,216.3,32.6,213.8,32.6,211.4z"/>
	<path class="st1" d="M13.2,196.6c-0.2-0.6-0.3-1.1-0.4-1.7c-0.4-3-0.2-6.2,0.5-9.2c0.2-0.6,0.3-1.3,0.5-1.9
		c-2.8-4.5-4.5-9.3-5.1-14.3c-0.6-4.7-0.1-9.5,1.3-14.2c-0.6-6.6-0.8-12.1-0.8-15.7c0-12.7,7.4-24.8,14.1-37.2c0-0.3,0-0.5,0-0.8
		c-0.2-5.5-0.5-11.2-0.4-17.3c0.2-16.9,9.9-25.9,23-33.6c1.1-2.4,2.3-4.9,2.8-7.5c0.3-1.3,0.5-2.8,0.8-4.2
		C20.9,64.8,2.9,102.2,2.9,143.6C2.9,162.4,6.6,180.2,13.2,196.6z"/>
	<path class="st2" d="M287.3,143.6c0-12.7-1.6-25.1-4.8-37c0.2-0.8,0.4-1.6,0.7-2.3c5.1-14.9-6.6-30.7-21.8-43
		c-4.4-6.3-9.3-12.2-14.8-17.8c-1.4-2.5-3.3-4.6-5.9-5.8c-9.7-8.9-20.4-16.4-31.9-22.2c-4.9-7.2-10.3-13.3-19.5-15
		c-0.7-0.1-1.4-0.2-2.2-0.2c-3.5,0-7.7,1.4-12.1,3.1C164.8,1.2,154.3,0,143.6,0c-9.9,0-19.6,1-29,2.9c-2.4,0-4.9,0.4-7.6,1.2
		c-2.5,0.7-4.6,1.5-6.5,2.4c-21.8,6.8-41.9,18.9-58.5,35.5C14.9,69.2,0,105.3,0,143.6c0,32.8,10.9,63.9,31.1,89.2
		c0.3,2.2,0.8,4.6,1.7,7.2c2.5,7,8.9,10.2,16.6,12c26.1,22.8,59.2,35.2,94.2,35.2c17.4,0,34.4-3.1,50.2-9c2.3,1.1,4.8,1.8,7.6,1.8
		c0,0,0,0,0,0c1.4,0,3-0.2,4.5-0.5c6.2-1.5,10.3-6.9,13.5-13.8c9.2-5.8,17.9-12.6,25.8-20.5c4.5-4.5,8.7-9.2,12.5-14.2
		c0,0,0.1,0,0.1-0.1c1.9-1.4,3.4-3.3,4-5.6c1.1-1.6,2.2-3.2,3.2-4.8c3.1-0.9,5.9-2.1,8.5-3.6c6.9-4.1,10.5-10.6,10.9-19.7
		c0.3-5.9-0.1-13.4-0.7-21.6C286.1,165.3,287.3,154.6,287.3,143.6z M282.5,197.1c-1,18.8-15.1,21.5-31.5,24.6
		c-3.2,0.6-6.4,1.2-9.6,2c-10.1,2.4-14.4,15.2-18.6,27.6c-4,11.9-8.2,24.2-17.2,26.3c-1.4,0.3-2.8,0.5-4.1,0.5c0,0,0,0,0,0
		c-5.1,0-8.9-2.5-12.9-5.2c-4.5-3-9.1-6.1-16-6.1c-5.2,0-11.1,1.8-18,5.5c-10.3,5.6-19.2,8.3-27.2,8.3c-14,0-23.5-8.9-30.9-17.6
		c-6.7-7.9-19.4-9.2-31.6-10.6c-13.8-1.5-26.7-2.9-30.4-13c-2.9-8.1-1.8-14.5-0.9-20.1c1.4-8.4,2.6-15.6-8.4-25.2
		c-16.8-14.6-19.6-32.8-7.5-49.9c8.8-12.5,8.3-25.8,7.5-42.6c-0.2-5.5-0.5-11.1-0.4-17.2c0.2-20.9,15.4-28.8,34.7-38.9
		c3-1.6,6.1-3.2,9.2-4.9C80,34.5,84.6,27.5,88.6,21.3c4.3-6.6,8.1-12.4,18.9-15.4c2.7-0.8,5.2-1.1,7.5-1.1c4.9,0,8.5,1.6,12.7,3.4
		c4.8,2.1,10.2,4.5,18.7,4.9c0.5,0,0.9,0,1.4,0c8.1,0,16.4-3.4,23.8-6.4c5.8-2.4,11.3-4.6,15.5-4.6c0.6,0,1.3,0.1,1.8,0.2
		c10.6,2,15.7,10.1,21.7,19.5c5.7,9,12.2,19.2,24.9,25.3c13.7,6.6,26.5,15.8,35.1,25.3c7.1,7.8,14.8,19.6,10.8,31.2
		c-4.6,13.4-2.4,37.8-0.6,59.5C281.9,176.1,283,188.4,282.5,197.1z M235.9,237.8c1.9,0,3.7-0.7,5.5-1.1c2.3-0.5,4.6-1,6.8-1.5
		c1-0.3,2.1-0.6,3.1-0.9c-8.6,10.2-18.7,19.2-29.9,26.7c1.1-2.9,2.1-5.9,3.2-8.9c1.1-3.2,2.2-6.5,3.4-9.5
		c3.2-8.3,7.2-15.3,13.8-16.8c2.2-0.5,4.5-1,6.7-1.4c0.9-0.2,1.8-0.4,2.8-0.5c2.9-0.5,5.7-1.1,8.4-1.7c0,0.5,0,0.9-0.1,1.3
		c-1.5,2.2-3.1,4.3-4.7,6.4c-2.3,1.4-5,2.1-7.5,2.7c-2,0.5-4,0.8-6,1.3c-2,0.4-4.4,0.7-6.1,2C234.4,236.3,234.7,237.8,235.9,237.8z
		 M161.2,279.6c-0.3-0.7-1.2-1.1-1.8-0.5c-1.1,1.1-1.2,2.6-2.6,3.5c-1.3,0.9-3.1,1.1-4.7,1.2c-1.9,0.1-3.4-0.5-5.2-1.2
		c-1.3-0.6-2.6-1.1-4.1-0.7c-0.3,0.1-0.4,0.5-0.1,0.6c1.3,0.6,2.6,1.3,3.9,1.8c-1,0-2,0-3,0c-33.4,0-64.1-11.7-88.3-31.2
		c3.1,0.5,6.3,0.8,9.4,1.2c1.2,0.1,2.5,0.3,3.7,0.4c10.6,1.2,21,3,26.6,9.5c4.1,4.8,8.8,9.7,14.5,13.2c5.1,3.1,10.9,5.1,17.8,5.1
		c6,0,12.4-1.5,19.5-4.4c2.7-1.1,5.6-2.5,8.5-4.1c6.6-3.6,12.2-5.3,17.1-5.3c5.7,0,9.8,2.4,13.6,4.9c0.4,0.3,0.9,0.6,1.3,0.9
		c0.9,0.6,1.9,1.3,2.9,1.9c-9.7,3.4-20,5.8-30.5,7.1C161.1,282.5,161.7,281.2,161.2,279.6z M156.5,10.1c-2.9,0.7-5.8,1.2-8.6,1.2
		c-0.4,0-0.9,0-1.3,0c-4.1-0.2-7.5-0.9-10.4-1.8c-2.9-0.9-5.3-2-7.6-3c-1.8-0.8-3.5-1.5-5.3-2.1c6.7-1,13.5-1.5,20.4-1.5
		c9,0,17.9,0.9,26.4,2.5C165.8,7.1,161.1,9,156.5,10.1z M52.5,36.5c1.3-1.1,2.6-2.2,4-3.3c2-0.9,4.4-1.2,6.6-1.4
		c3.9-0.3,7.9-0.1,11.9-0.2c1,0,2.1,0,3.3-0.1c-0.3,0.3-0.7,0.6-1,0.9c-2.5,2.2-5.5,4.5-9.3,6.5c-3.1,1.7-6.2,3.3-9.2,4.9
		c-3.2,1.6-6.3,3.3-9.2,4.9c-0.8,0.4-1.5,0.9-2.3,1.3c0.8-1.3,1.6-2.7,2.2-4.2c0.9-2.4,1.4-5,2.2-7.5C51.8,37.6,52.1,37,52.5,36.5z
		 M87,20.2c-1.5,2.3-3.2,4.8-5.2,7.3c-0.8,0.2-1.5,0.4-2.3,0.5c-2.7,0.5-5.4,0.5-8.2,0.5c-3.2,0-6.4,0.1-9.6,0.5
		c9.5-6.8,19.9-12.5,31-16.8C90.6,14.8,88.8,17.5,87,20.2z M49.6,39c-0.3,1.4-0.5,2.9-0.8,4.2c-0.6,2.6-1.7,5.1-2.8,7.5
		c-13.1,7.7-22.8,16.7-23,33.6c-0.1,6.2,0.2,11.8,0.4,17.3c0,0.3,0,0.5,0,0.8c0.7,16.1,1.1,28.9-7.2,40.7c-2.8,4-4.8,8.1-6.1,12.2
		c-1.4,4.7-1.9,9.5-1.3,14.2c0.6,5,2.3,9.7,5.1,14.3c-0.1,0.6-0.3,1.3-0.5,1.9c-0.7,3-0.9,6.1-0.5,9.2c0.1,0.6,0.2,1.2,0.4,1.7
		c-6.7-16.4-10.3-34.2-10.3-53C2.9,102.2,20.9,64.8,49.6,39z M14.3,199.1c0.5,0.9,1.1,1.7,1.8,2.4c2,2.2,5,3.3,6.6,5.8
		c1,1.6,3.6,0.1,2.5-1.5c-1.3-1.9-3.1-3.1-5-4.3c-2.7-1.9-4.4-4.3-5.1-7.5c-0.5-2.6-0.3-5.3,0.2-7.9c1,1.4,2.1,2.8,3.3,4.1
		c1.6,1.8,3.4,3.6,5.5,5.4c6.9,6,8.6,10.8,8.7,15.9c0,2.4-0.4,4.9-0.8,7.6c-0.4,2.7-0.9,5.6-1,8.8C24.2,218.9,18.7,209.3,14.3,199.1
		z M226.4,37.7c2.5,0.9,5.2,0.9,7.8,1c1.2,0,2.4,0.1,3.6,0.3c2.8,2.5,5.5,5.1,8,7.8c0.5,1.4,0.8,2.9,0.9,4.2c-3.5-2.1-7-4-10.3-5.6
		c-12.2-5.9-18.5-15.8-24.1-24.6c0,0,0-0.1-0.1-0.1c8.2,4.6,15.9,9.9,22.9,16c-1.3,0-2.5,0-3.8,0c-1.4-0.1-2.7-0.2-4.1-0.5
		c-1.2-0.3-1.7-1-2.6-1.5c-0.2-0.1-0.3,0-0.4,0.1C223.3,36,225.4,37.3,226.4,37.7z M249,52.4C249,52.4,249,52.4,249,52.4
		c0-0.8-0.1-1.6-0.2-2.3c1.4,1.6,2.9,3.3,4.2,5C251.6,54.2,250.3,53.3,249,52.4z M282.7,163c-1.5-17-3.1-35.7-1.5-49.3
		c2.1,9.7,3.2,19.7,3.2,29.9c0,7.2-0.5,14.2-1.6,21.1C282.8,164.2,282.7,163.6,282.7,163z"/>
	<path class="st2" d="M143.6,94.7c-27,0-49,22-49,49c0,27,22,49,49,49c27,0,49-22,49-49C192.6,116.6,170.7,94.7,143.6,94.7z
		 M143.6,189.8c-25.4,0-46.1-20.7-46.1-46.1c0-25.4,20.7-46.1,46.1-46.1c25.4,0,46.1,20.7,46.1,46.1
		C189.8,169.1,169.1,189.8,143.6,189.8z"/>
	<path class="st3" d="M186.3,273.7c-3.8-2.5-7.9-4.9-13.6-4.9c-4.9,0-10.5,1.7-17.1,5.3c-3,1.6-5.8,3-8.5,4.1c0.5,0,0.9,0,1.4,0
		C161.6,278.1,174.4,277,186.3,273.7z"/>
	<path class="st3" d="M109.7,277.4c-5.7-3.5-10.4-8.4-14.5-13.2c-5.6-6.5-16-8.3-26.6-9.5C81.2,269.5,95.6,275.3,109.7,277.4z"/>
	<path class="st3" d="M248.6,224.2c-2.3,0.4-4.5,0.9-6.7,1.4c-6.6,1.6-10.6,8.6-13.8,16.8C233.9,235.5,240.8,228.5,248.6,224.2z"/>
	<path class="st3" d="M10.1,155.3c1.3-4.2,3.3-8.3,6.1-12.2c8.3-11.8,7.9-24.6,7.2-40.7C16.7,114.8,9.3,127,9.3,139.6
		C9.3,143.2,9.4,148.8,10.1,155.3z"/>
	<path class="st3" d="M186.1,178c9.4-4,9-9.6,8.5-16.6c-0.4-5.6-0.9-11.9,3.7-18.4c5.2-7.4,1.7-11.3-3.1-16.8
		c-3.8-4.2-8.4-9.5-9.6-17.6c-1.6-11.4-13-13.3-25.1-15.3c-6-1-12.3-2-17.3-4.3c-2.2-1-4.3-1.5-6.5-1.5c-6.8,0-13.2,4.9-19.9,10.1
		c-4.2,3.3-8.6,6.6-13.4,9.1c-8.5,4.4-9.3,11.6-10.1,19.9c-0.6,5.7-1.2,11.7-4.3,17.4c-4.6,8.5,1.4,16.3,8.3,25.4
		c4,5.2,8.2,10.6,11,16.9c3.5,7.9,8.3,9.4,14.9,9.4c1.3,0,2.6-0.1,4-0.1c1.4-0.1,2.9-0.1,4.4-0.1c3.4,0,7.9,0.3,12.3,2.6
		c1.8,1,3.7,1.4,5.6,1.4c5.9,0,11.7-4.6,18.4-9.9C173.3,185.7,179.2,180.9,186.1,178z M143.6,194.8c-16.5-2.9-33.5-7-40.6-19.8
		c-7.1-12.9-14.3-16.5-10.5-31.3c3.8-14.8,6.8-38,21.5-42.5c14.7-4.6,17.9-12.7,29.6-8.6c11.7,4.1,30.2-0.1,37,14.1
		c6.8,14.2,20.3,21.5,13.3,39.4c-7.1,17.9,2.3,29-13.7,34.5C165.1,185.6,160.1,197.7,143.6,194.8z"/>
	<path class="st3" d="M32.6,211.4c0-5-1.8-9.9-8.7-15.9c-2-1.8-3.8-3.6-5.5-5.4c0.6,1.4,1.3,2.7,1.9,4
		C23.7,200.4,27.9,206,32.6,211.4z"/>
	<path class="st3" d="M136.2,9.5c2.9,0.9,6.3,1.6,10.4,1.8c0.4,0,0.9,0,1.3,0c2.9,0,5.8-0.4,8.6-1.2c-4.1-0.7-8.3-1-12.8-1
		C141,9.1,138.5,9.2,136.2,9.5z"/>
	<path class="st3" d="M49.5,48.7c3-1.6,6-3.2,9.2-4.9c3-1.6,6.1-3.2,9.2-4.9c3.8-2.1,6.8-4.3,9.3-6.5c-3.5,1-7.2,1.8-11.3,2.5
		C60.8,35.8,55,41.1,49.5,48.7z"/>
	<path class="st4" d="M280.8,163.1c-1.9-21.6-4-46.1,0.6-59.5c4-11.6-3.7-23.4-10.8-31.2c-8.6-9.5-21.4-18.7-35.1-25.3
		c-12.7-6.1-19.2-16.3-24.9-25.3c-6-9.4-11.1-17.5-21.7-19.5c-0.6-0.1-1.2-0.2-1.8-0.2c-4.2,0-9.7,2.2-15.5,4.6
		c-7.3,3-15.6,6.4-23.8,6.4c-0.5,0-0.9,0-1.4,0c-8.5-0.4-13.9-2.8-18.7-4.9c-4.2-1.8-7.8-3.4-12.7-3.4c-2.3,0-4.8,0.4-7.5,1.1
		c-10.9,3-14.6,8.7-18.9,15.4c-4.1,6.2-8.6,13.2-19.8,19.3c-3.1,1.7-6.2,3.3-9.2,4.9c-19.3,10-34.5,18-34.7,38.9
		c-0.1,6.1,0.2,11.8,0.4,17.2c0.7,16.8,1.3,30.1-7.5,42.6c-12.1,17.1-9.3,35.3,7.5,49.9c11,9.6,9.8,16.8,8.4,25.2
		c-0.9,5.6-2,12,0.9,20.1c3.6,10.1,16.6,11.6,30.4,13c12.2,1.3,24.9,2.7,31.6,10.6c7.4,8.7,16.9,17.6,30.9,17.6
		c7.9,0,16.8-2.7,27.2-8.3c6.9-3.7,12.7-5.5,18-5.5c6.9,0,11.5,3.1,16,6.1c4,2.7,7.7,5.2,12.9,5.2c0,0,0,0,0,0
		c1.3,0,2.7-0.2,4.1-0.5c9-2.1,13.2-14.4,17.2-26.3c4.2-12.4,8.5-25.2,18.6-27.6c3.2-0.8,6.4-1.4,9.6-2c16.4-3.1,30.6-5.8,31.5-24.6
		C283,188.4,281.9,176.1,280.8,163.1z M205.7,118.6c3.2-12.7,10.9-16.4,11.2-16.5c0.3-0.1,0.7-0.2,1-0.2c0.9,0,1.8,0.5,2.2,1.4
		c0.5,1.2,0,2.6-1.2,3.2c-0.2,0.1-5.9,3-8.6,13.4c-0.3,1.1-1.2,1.8-2.3,1.8c-0.2,0-0.4,0-0.6-0.1c-1-0.3-1.8-1.2-1.8-2.3
		C205.6,119,205.7,118.8,205.7,118.6z M198.1,49c-0.4,0.4-1,0.7-1.6,0.7c-0.7,0-1.3-0.3-1.7-0.7c-0.7-0.8-0.9-2-0.3-2.9
		c0.1-0.2,0.2-0.3,0.4-0.5c9.5-9,17.9-8,18.3-8c0.6,0.1,1.2,0.4,1.6,0.9c0.4,0.5,0.6,1.1,0.5,1.8c-0.2,1.3-1.3,2.2-2.7,2.1
		c0,0-0.2,0-0.6,0C210.3,42.3,204.7,42.8,198.1,49z M207.2,228.6c0.3-1.1,1.2-1.8,2.3-1.8c0.2,0,0.4,0,0.6,0.1
		c1.1,0.3,1.8,1.2,1.8,2.3c0,0.2,0,0.4-0.1,0.6c-3.2,12.7-10.8,16.4-11.1,16.5c-0.3,0.1-0.7,0.2-1,0.2c-0.9,0-1.8-0.5-2.2-1.4
		c-0.6-1.2,0-2.6,1.1-3.2C198.9,241.8,204.6,238.9,207.2,228.6z M209.7,190.4c-0.2,0-0.4,0-0.6-0.1c-1-0.3-1.8-1.2-1.8-2.3
		c0-0.2,0-0.4,0.1-0.6c3.3-12.7,11-16.3,11.3-16.4c0.3-0.1,0.6-0.2,1-0.2c0.9,0,1.8,0.5,2.2,1.4c0.5,1.2,0,2.6-1.2,3.2
		c-0.2,0.1-6,3-8.7,13.3C211.7,189.7,210.8,190.4,209.7,190.4z M219.9,146.1c-3.1,0-4.9-0.7-5.1-0.7c-1.2-0.5-1.9-1.8-1.4-3.1
		c0.3-0.9,1.2-1.5,2.2-1.5c0.3,0,0.6,0,0.8,0.1c0,0,1.3,0.4,3.4,0.4c2.6,0,6.8-0.6,12.1-3.7c0.4-0.2,0.8-0.3,1.2-0.3
		c0.8,0,1.6,0.5,2.1,1.2c0.5,0.9,0.4,2.1-0.4,2.9c-0.1,0.1-0.3,0.3-0.5,0.4C228.3,145.4,223.1,146.1,219.9,146.1z M180.8,70.9
		c-0.6-1.2-0.2-2.6,1-3.2c0.9-0.5,2.2-0.3,2.9,0.5c0.1,0.2,0.3,0.3,0.4,0.5c6.2,11.6,3,19.4,2.8,19.7c-0.4,0.9-1.2,1.5-2.2,1.5
		c-0.3,0-0.6-0.1-0.9-0.2c-1.2-0.5-1.8-1.9-1.3-3.1C183.5,86.3,185.8,80.3,180.8,70.9z M157.3,23.4c0.2-0.1,0.4-0.2,0.6-0.3
		c3.6-1.3,7.2-1.9,10.6-1.9c5.9,0,9.2,2,9.4,2.1c0.5,0.3,0.9,0.9,1.1,1.5c0.1,0.6,0,1.3-0.3,1.8c-0.4,0.7-1.2,1.1-2,1.1
		c-0.4,0-0.9-0.1-1.2-0.3c-0.1-0.1-2.5-1.4-6.9-1.4c-2.8,0-5.9,0.6-9,1.7c-0.3,0.1-0.5,0.1-0.8,0.1c-1,0-1.9-0.6-2.3-1.6
		C156,25.1,156.4,24,157.3,23.4z M133.9,62.1c0.1,0.1,3.3,2.5,9.7,2.5c1.9,0,3.9-0.2,6-0.7c0.2,0,0.3,0,0.5,0c1.1,0,2.1,0.8,2.3,1.9
		c0.2,1.1-0.3,2.1-1.3,2.6c-0.2,0.1-0.4,0.2-0.6,0.2c-2.4,0.5-4.7,0.7-6.9,0.7c-8.3,0-12.6-3.5-12.8-3.6c-0.5-0.4-0.8-1-0.9-1.6
		c-0.1-0.6,0.1-1.3,0.5-1.8c0.5-0.6,1.1-0.9,1.8-0.9C132.9,61.6,133.5,61.8,133.9,62.1z M117.6,19.1c-0.4-1.2,0.3-2.6,1.5-3
		c0.2-0.1,0.5-0.1,0.8-0.1c0.8,0,1.6,0.4,2,1.1c0.1,0.2,0.2,0.4,0.3,0.6c4.2,12.4-0.3,19.6-0.5,19.9c-0.4,0.7-1.2,1.1-2,1.1
		c-0.5,0-0.9-0.1-1.3-0.4c-1.1-0.7-1.4-2.2-0.7-3.3C117.7,34.7,121,29.2,117.6,19.1z M114.2,82.3c0,0.6-0.2,1.2-0.6,1.7
		c-0.5,0.5-1.1,0.8-1.8,0.8c-0.6,0-1.2-0.2-1.6-0.6C110,84.1,106.5,81,99,81c-1.4,0-2.9,0.1-4.4,0.3c-1.3,0.2-2.5-0.7-2.7-2
		c-0.2-1.1,0.4-2.1,1.4-2.5c0.2-0.1,0.4-0.1,0.6-0.2c1.7-0.2,3.4-0.4,5.1-0.4c9.6,0,14.3,4.3,14.4,4.4
		C113.9,81.1,114.2,81.7,114.2,82.3z M82.1,42c0.5-0.5,1.1-0.9,1.8-0.9c0.6,0,1.1,0.2,1.5,0.5c1,0.8,1.2,2.3,0.3,3.4
		c-0.2,0.2-4.1,5.3-2,15.7c0.3,1.3-0.6,2.6-1.9,2.8c-0.2,0-0.3,0-0.5,0c-0.9,0-1.7-0.5-2.1-1.3c-0.1-0.2-0.2-0.4-0.2-0.6
		C76.5,48.8,81.9,42.2,82.1,42z M64,198.7c1.3-0.1,2.5,0.8,2.6,2.1c0.1,1.3-0.8,2.5-2.1,2.6c-0.3,0-6.6,0.9-12.5,9.8
		c-0.4,0.7-1.2,1.1-2,1.1c-0.5,0-0.9-0.1-1.3-0.4c-0.9-0.6-1.3-1.7-1-2.8c0.1-0.2,0.2-0.4,0.3-0.6C55.2,199.7,63.6,198.7,64,198.7z
		 M47.8,164c1.7,13-4,19.2-4.3,19.5c-0.4,0.5-1.1,0.7-1.7,0.7c-0.6,0-1.2-0.2-1.6-0.7c-1-0.9-1-2.4-0.1-3.4c0.2-0.2,4.4-5,3-15.6
		c-0.2-1.3,0.8-2.5,2.1-2.7c1.1-0.1,2.1,0.5,2.5,1.5C47.7,163.6,47.7,163.8,47.8,164z M47.4,88.9c0.4,1.2-0.2,2.6-1.5,3
		C45.7,92,45.4,92,45.1,92c-0.8,0-1.5-0.4-2-1.1c-0.1-0.2-0.2-0.4-0.3-0.6c-4.3-12.4,0.1-19.6,0.3-19.9c0.4-0.7,1.2-1.1,2-1.1
		c0.4,0,0.9,0.1,1.3,0.4c1.1,0.7,1.5,2.2,0.8,3.3C47.1,73.2,43.9,78.8,47.4,88.9z M30.1,139.8c-0.4,0.4-1,0.7-1.6,0.7
		c-0.7,0-1.3-0.3-1.7-0.7c-0.7-0.8-0.9-2-0.3-2.9c0.1-0.2,0.2-0.3,0.4-0.5c9.5-9,17.9-8,18.3-8c0.6,0.1,1.2,0.4,1.6,0.9
		c0.4,0.5,0.6,1.1,0.5,1.8c-0.2,1.3-1.3,2.2-2.7,2.1c0,0-0.2,0-0.6,0C42.3,133,36.7,133.5,30.1,139.8z M72.1,238.9
		c-0.3,1-1.2,1.8-2.3,1.8c-0.2,0-0.4,0-0.6-0.1c-12.7-3.4-16.2-11-16.4-11.4c-0.5-1.2,0-2.6,1.2-3.2c0.3-0.1,0.6-0.2,1-0.2
		c0.9,0,1.8,0.5,2.2,1.4c0.1,0.2,2.9,6,13.3,8.7c0.6,0.2,1.1,0.6,1.5,1.1C72.2,237.6,72.3,238.3,72.1,238.9z M72.6,163.6
		c-0.2,1.1-1.2,1.9-2.3,1.9c-0.2,0-0.3,0-0.5,0c-1.3-0.3-2.1-1.5-1.9-2.8c0-0.3,1.1-6.6-5.8-14.8c-0.8-1-0.7-2.5,0.3-3.4
		c0.8-0.7,2.1-0.7,2.9-0.1c0.2,0.1,0.3,0.3,0.5,0.4C74.3,154.9,72.7,163.2,72.6,163.6z M78.2,110.7c-0.2-0.2-4.3-5.1-15-5.3
		c-1.3,0-2.4-1.1-2.3-2.4c0-1.1,0.8-2,1.8-2.3c0.2,0,0.4-0.1,0.6-0.1c13.2,0.2,18.5,6.8,18.7,7.1c0.4,0.5,0.6,1.1,0.5,1.8
		c-0.1,0.6-0.4,1.2-0.9,1.6c-0.4,0.3-0.9,0.5-1.5,0.5C79.4,111.6,78.7,111.3,78.2,110.7z M82.2,203.1c-0.1,0-0.2,0-0.2,0
		c-0.6,0-1.2-0.3-1.7-0.8c-0.4-0.5-0.6-1.1-0.6-1.7c0.1-1.3,1.1-2.3,2.4-2.3l0.2,0c0.7,0,6.9-0.2,13.7-7.9c0.5-0.5,1.1-0.8,1.8-0.8
		c0.6,0,1.2,0.2,1.6,0.6c0.8,0.7,1,1.9,0.5,2.9c-0.1,0.2-0.2,0.4-0.4,0.5C91.4,202.6,83.6,203.1,82.2,203.1z M113.3,235.8
		c-0.1,0-0.2,0-0.3,0c-1.2,0-2.2-0.9-2.4-2.1c0-0.3-0.9-6.6-9.9-12.4c-1.1-0.7-1.4-2.2-0.7-3.3c0.4-0.7,1.2-1.1,2-1.1
		c0.3,0,0.5,0,0.7,0.1c0.2,0.1,0.4,0.2,0.6,0.3c11,7.1,12,15.5,12.1,15.9c0.1,0.6-0.1,1.3-0.5,1.8
		C114.5,235.4,113.9,235.7,113.3,235.8z M115.5,259c0.1-0.2,0.2-0.3,0.4-0.5c9.5-9,17.9-8,18.3-8c0.6,0.1,1.2,0.4,1.6,0.9
		c0.4,0.5,0.6,1.1,0.5,1.8c-0.2,1.3-1.4,2.2-2.7,2.1c0,0-0.2,0-0.6,0c-1.6,0-7.2,0.5-13.8,6.7c-0.4,0.4-1,0.7-1.6,0.7
		c-0.7,0-1.3-0.3-1.7-0.7C115.1,261.1,115,260,115.5,259z M150.9,213.1c-0.1,0.2-0.2,0.4-0.3,0.5c-7.8,10.6-16.2,11.1-16.6,11.1
		c0,0-0.1,0-0.1,0c-1.3,0-2.3-1-2.4-2.3c-0.1-1.3,1-2.4,2.3-2.5c0.3,0,6.6-0.5,13-9.1c0.4-0.6,1.2-1,1.9-1c0.5,0,1,0.2,1.4,0.5
		C150.9,210.9,151.3,212,150.9,213.1z M149.6,201.6c-2.2,0-4.3-0.5-6.4-1.6c-4.1-2.1-8.3-2.4-11.5-2.4c-1.5,0-2.9,0.1-4.3,0.1
		c-1.4,0.1-2.8,0.1-4.1,0.1c-7.2,0-12.7-1.8-16.7-10.6c-2.7-6.1-6.8-11.4-10.8-16.6c-7-9.2-13.7-17.9-8.5-27.5
		c3-5.4,3.5-11.2,4.1-16.7c0.9-8.5,1.7-16.6,11.1-21.4c4.7-2.4,8.9-5.7,13.1-8.9c7-5.4,13.6-10.5,21.1-10.5c2.5,0,4.9,0.5,7.3,1.7
		c4.8,2.2,10.9,3.2,16.8,4.2c12.3,2,25,4.2,26.7,16.9c1,7.6,5.3,12.4,9.1,16.6c5,5.6,9.3,10.5,3.3,19.1c-4.2,5.9-3.8,11.6-3.4,17.1
		c0.5,7.2,1,13.9-9.7,18.5c-6.6,2.8-12.2,7.2-17.6,11.5C162.2,196.8,156.2,201.6,149.6,201.6z M175.7,255.5c-0.2,1.2-1.2,2-2.4,2
		c-0.1,0-0.3,0-0.4,0c-1.3-0.2-2.2-1.4-2-2.7c0-0.3,0.9-6.6-6.3-14.6c-0.9-1-0.8-2.5,0.2-3.4c0.8-0.7,2-0.8,2.9-0.2
		c0.2,0.1,0.3,0.3,0.5,0.4C177,246.8,175.7,255.1,175.7,255.5z M187.7,220.4c-0.2,0-0.4,0-0.6-0.1c-0.2-0.1-0.4-0.1-0.6-0.2
		c-11.4-6.5-12.8-14.9-12.9-15.2c-0.1-0.6,0-1.3,0.4-1.8c0.4-0.5,0.9-0.9,1.6-1c1.3-0.2,2.5,0.7,2.7,2c0,0.3,1.3,6.5,10.6,11.9
		c0.6,0.3,1,0.8,1.1,1.4c0.2,0.6,0.1,1.3-0.2,1.8C189.4,220,188.6,220.4,187.7,220.4z M236.4,216.2c-0.4,0.9-1.2,1.5-2.2,1.5
		c-0.3,0-0.6-0.1-0.9-0.2c-1.2-0.5-1.8-1.9-1.3-3.1c0.1-0.2,2.3-6.2-2.9-15.6c-0.6-1.2-0.2-2.6,0.9-3.3c0.9-0.5,2.2-0.3,2.9,0.4
		c0.1,0.1,0.3,0.3,0.4,0.5C239.6,208,236.5,215.9,236.4,216.2z M239.6,88.4c-0.4,0.9-1.2,1.4-2.2,1.4c-0.3,0-0.7-0.1-1-0.2
		c-1.2-0.5-1.8-1.9-1.2-3.1c0.1-0.2,2.5-6.2-2.5-15.7c-0.6-1.2-0.1-2.6,1-3.2c0.9-0.5,2.2-0.3,2.9,0.5c0.1,0.2,0.3,0.3,0.4,0.5
		C243,80.3,239.7,88.1,239.6,88.4z M248.3,103.2c-0.5-0.9-0.3-2.1,0.4-2.9c0.1-0.1,0.3-0.3,0.5-0.4c6-3.3,11-4,14.1-4
		c3.4,0,5.4,0.8,5.6,0.9c0.6,0.2,1.1,0.7,1.3,1.3c0.3,0.6,0.3,1.2,0,1.8c-0.4,0.9-1.2,1.5-2.2,1.5c-0.3,0-0.6-0.1-0.9-0.2
		c-0.1,0-1.4-0.5-3.8-0.5c-2.5,0-6.7,0.6-11.8,3.4c-0.4,0.2-0.8,0.3-1.2,0.3C249.6,104.4,248.8,104,248.3,103.2z M258.3,134.5
		c-0.8-1-0.6-2.5,0.4-3.4c0.8-0.7,2.1-0.7,2.9,0c0.2,0.1,0.3,0.3,0.4,0.4c8.1,10.3,6.4,18.6,6.3,18.9c-0.2,1.1-1.2,1.9-2.3,1.9
		c-0.2,0-0.3,0-0.5-0.1c-1.3-0.3-2.1-1.6-1.8-2.8C263.7,149.1,264.9,142.8,258.3,134.5z M252.2,188.5c-1.2,0-2.2-0.9-2.4-2.1
		c-0.1-1.3,0.8-2.5,2.1-2.6c0.3,0,6.6-1,12.3-10c0.4-0.7,1.2-1.1,2-1.1c0.5,0,0.9,0.1,1.3,0.4c0.9,0.6,1.3,1.7,1,2.7
		c-0.1,0.2-0.1,0.4-0.3,0.6c-7.1,11-15.5,12.1-15.8,12.1C252.4,188.5,252.3,188.5,252.2,188.5z"/>
	<path class="st2" d="M186.8,179.8c10.7-4.6,10.2-11.3,9.7-18.5c-0.4-5.5-0.8-11.2,3.4-17.1c6.1-8.6,1.8-13.5-3.3-19.1
		c-3.8-4.2-8.1-9.1-9.1-16.6c-1.7-12.8-14.4-14.9-26.7-16.9c-5.9-1-12-2-16.8-4.2c-2.4-1.1-4.8-1.7-7.3-1.7
		c-7.5,0-14.1,5.1-21.1,10.5c-4.1,3.2-8.4,6.5-13.1,8.9c-9.5,4.9-10.3,12.9-11.1,21.4c-0.6,5.5-1.1,11.3-4.1,16.7
		c-5.2,9.6,1.4,18.3,8.5,27.5c4,5.1,8,10.5,10.8,16.6c4,8.8,9.5,10.6,16.7,10.6c1.4,0,2.7-0.1,4.1-0.1c1.4-0.1,2.9-0.1,4.3-0.1
		c3.2,0,7.4,0.3,11.5,2.4c2.1,1.1,4.2,1.6,6.4,1.6c6.6,0,12.6-4.8,19.6-10.3C174.6,187,180.2,182.6,186.8,179.8z M144.1,198.3
		c-4.4-2.3-8.9-2.6-12.3-2.6c-1.5,0-3,0.1-4.4,0.1c-1.4,0.1-2.7,0.1-4,0.1c-6.6,0-11.4-1.6-14.9-9.4c-2.8-6.3-7-11.7-11-16.9
		c-6.9-9.1-12.9-16.9-8.3-25.4c3.1-5.8,3.7-11.7,4.3-17.4c0.8-8.3,1.6-15.5,10.1-19.9c4.8-2.5,9.2-5.8,13.4-9.1
		c6.7-5.2,13.1-10.1,19.9-10.1c2.2,0,4.3,0.5,6.5,1.5c5,2.3,11.2,3.3,17.3,4.3c12.1,2,23.6,3.9,25.1,15.3c1.1,8.2,5.8,13.4,9.6,17.6
		c4.8,5.4,8.3,9.4,3.1,16.8c-4.6,6.5-4.1,12.8-3.7,18.4c0.5,7,0.9,12.6-8.5,16.6c-6.8,2.9-12.8,7.6-18,11.8
		c-6.7,5.3-12.5,9.9-18.4,9.9C147.7,199.7,145.9,199.2,144.1,198.3z"/>
	<path class="st5" d="M71,237.6c-0.2-0.3-0.5-0.6-0.9-0.7c-10.8-2.9-13.8-9-13.9-9.2c-0.2-0.5-0.7-0.8-1.3-0.8c-0.2,0-0.4,0-0.6,0.1
		c-0.7,0.3-1,1.2-0.7,1.9c0.1,0.3,3.5,7.6,15.8,10.8c0.8,0.2,1.6-0.3,1.8-1C71.3,238.3,71.2,237.9,71,237.6z"/>
	<path class="st2" d="M70.4,236c-10.3-2.7-13.1-8.5-13.3-8.7c-0.4-0.9-1.2-1.4-2.2-1.4c-0.3,0-0.7,0.1-1,0.2c-1.2,0.5-1.7,2-1.2,3.2
		c0.1,0.3,3.7,8,16.4,11.4c0.2,0.1,0.4,0.1,0.6,0.1c1.1,0,2-0.7,2.3-1.8c0.2-0.6,0.1-1.3-0.2-1.8C71.5,236.5,71,236.2,70.4,236z
		 M69.4,239.7c-12.2-3.2-15.6-10.5-15.8-10.8c-0.3-0.7,0-1.6,0.7-1.9c0.2-0.1,0.4-0.1,0.6-0.1c0.6,0,1.1,0.3,1.3,0.8
		c0.1,0.3,3.1,6.4,13.9,9.2c0.4,0.1,0.7,0.3,0.9,0.7c0.2,0.3,0.2,0.7,0.1,1.1C71,239.4,70.2,239.9,69.4,239.7z"/>
	<path class="st6" d="M114.5,233.3c0-0.3-1-8.3-11.6-15.2c-0.1-0.1-0.2-0.1-0.3-0.2c-0.1,0-0.3-0.1-0.4-0.1c-0.5,0-0.9,0.2-1.2,0.7
		c-0.4,0.7-0.2,1.6,0.4,2c9.3,6,10.3,12.8,10.3,13.1c0.1,0.8,0.8,1.4,1.6,1.3c0.4,0,0.7-0.2,1-0.5
		C114.4,234,114.5,233.6,114.5,233.3z"/>
	<path class="st2" d="M115.4,233.2c0-0.4-1-8.8-12.1-15.9c-0.2-0.1-0.4-0.2-0.6-0.3c-0.2-0.1-0.5-0.1-0.7-0.1c-0.8,0-1.6,0.4-2,1.1
		c-0.7,1.1-0.4,2.6,0.7,3.3c9,5.8,9.9,12.1,9.9,12.4c0.1,1.2,1.2,2.1,2.4,2.1c0.1,0,0.2,0,0.3,0c0.6-0.1,1.2-0.4,1.6-0.9
		C115.3,234.4,115.5,233.8,115.4,233.2z M113.2,234.8c-0.8,0.1-1.5-0.5-1.6-1.3c0-0.3-1-7-10.3-13.1c-0.7-0.4-0.9-1.3-0.4-2
		c0.3-0.4,0.7-0.7,1.2-0.7c0.2,0,0.3,0,0.4,0.1c0.1,0,0.2,0.1,0.3,0.2c10.6,6.9,11.6,14.9,11.6,15.2c0,0.4-0.1,0.8-0.3,1.1
		C113.9,234.6,113.6,234.8,113.2,234.8z"/>
	<path class="st7" d="M116.5,261.3c0.5,0.6,1.5,0.6,2,0.1c6.7-6.3,12.3-7,14.5-7c0.4,0,0.6,0,0.7,0c0.1,0,0.1,0,0.2,0
		c0.7,0,1.3-0.5,1.4-1.2c0.1-0.4-0.1-0.8-0.3-1.1c-0.2-0.3-0.6-0.5-1-0.5c0,0-0.4,0-1,0c-2.5,0-9.1,0.8-16.5,7.8
		c-0.1,0.1-0.2,0.2-0.2,0.3C116,260.1,116.1,260.8,116.5,261.3z"/>
	<path class="st2" d="M117.6,262.7c0.6,0,1.2-0.2,1.6-0.7c6.6-6.3,12.2-6.7,13.8-6.7c0.3,0,0.5,0,0.6,0c1.3,0.2,2.5-0.8,2.7-2.1
		c0.1-0.6-0.1-1.3-0.5-1.8c-0.4-0.5-1-0.8-1.6-0.9c-0.4,0-8.8-1-18.3,8c-0.2,0.1-0.3,0.3-0.4,0.5c-0.6,0.9-0.4,2.1,0.3,2.9
		C116.3,262.4,116.9,262.7,117.6,262.7z M116.6,259.2c7.4-7,14-7.8,16.5-7.8c0.6,0,0.9,0,1,0c0.4,0,0.7,0.2,1,0.5
		c0.2,0.3,0.3,0.7,0.3,1.1c-0.1,0.7-0.7,1.2-1.4,1.2c-0.1,0-0.1,0-0.2,0c-0.1,0-0.3,0-0.7,0c-2.1,0-7.8,0.7-14.5,7
		c-0.6,0.5-1.5,0.5-2-0.1c-0.4-0.5-0.5-1.2-0.2-1.7C116.4,259.4,116.5,259.3,116.6,259.2z"/>
	<path class="st6" d="M167.3,237.4c-0.2-0.2-0.5-0.2-0.8-0.2c-0.4,0-0.7,0.1-1,0.4c-0.6,0.5-0.6,1.4-0.1,2
		c7.4,8.3,6.5,15.1,6.5,15.4c-0.1,0.8,0.4,1.5,1.2,1.6c0.8,0.1,1.5-0.4,1.6-1.2c0.1-0.3,1.2-8.3-7.2-17.7
		C167.5,237.5,167.4,237.4,167.3,237.4z"/>
	<path class="st2" d="M167.8,236.6c-0.9-0.6-2.1-0.5-2.9,0.2c-1,0.9-1.1,2.4-0.2,3.4c7.1,8,6.3,14.3,6.3,14.6
		c-0.2,1.3,0.7,2.5,2,2.7c0.1,0,0.3,0,0.4,0c1.2,0,2.2-0.8,2.4-2c0.1-0.4,1.3-8.7-7.4-18.5C168.1,236.8,168,236.7,167.8,236.6z
		 M174.7,255.3c-0.1,0.8-0.8,1.3-1.6,1.2c-0.8-0.1-1.3-0.9-1.2-1.6c0-0.3,0.9-7.1-6.5-15.4c-0.5-0.6-0.5-1.5,0.1-2
		c0.3-0.2,0.6-0.4,1-0.4c0.3,0,0.6,0.1,0.8,0.2c0.1,0.1,0.2,0.2,0.3,0.2C176,247.1,174.8,255,174.7,255.3z"/>
	<path class="st5" d="M149.5,211c-0.2-0.2-0.5-0.3-0.8-0.3c-0.5,0-0.9,0.2-1.2,0.6c-6.6,9-13.4,9.5-13.7,9.5c-0.8,0-1.4,0.7-1.4,1.5
		c0,0.8,0.7,1.4,1.4,1.4l0.1,0c0.3,0,8.4-0.5,15.9-10.7c0.1-0.1,0.1-0.2,0.2-0.3C150.2,212.1,150,211.4,149.5,211z"/>
	<path class="st2" d="M150.1,210.3c-0.4-0.3-0.9-0.5-1.4-0.5c-0.8,0-1.5,0.4-1.9,1c-6.3,8.6-12.7,9.1-13,9.1
		c-1.3,0.1-2.3,1.2-2.3,2.5c0.1,1.3,1.1,2.3,2.4,2.3c0,0,0.1,0,0.1,0c0.4,0,8.8-0.5,16.6-11.1c0.1-0.2,0.2-0.3,0.3-0.5
		C151.3,212,150.9,210.9,150.1,210.3z M150,212.7c0,0.1-0.1,0.2-0.2,0.3c-7.5,10.2-15.5,10.7-15.9,10.7l-0.1,0
		c-0.8,0-1.4-0.6-1.4-1.4c0-0.8,0.6-1.5,1.4-1.5c0.3,0,7.1-0.6,13.7-9.5c0.3-0.4,0.7-0.6,1.2-0.6c0.3,0,0.6,0.1,0.8,0.3
		C150,211.4,150.2,212.1,150,212.7z"/>
	<path class="st7" d="M189.1,217.7c-0.1-0.4-0.3-0.7-0.7-0.9c-9.7-5.5-11-12.2-11-12.5c-0.1-0.7-0.7-1.2-1.4-1.2c-0.1,0-0.2,0-0.2,0
		c-0.4,0.1-0.7,0.3-0.9,0.6c-0.2,0.3-0.3,0.7-0.3,1.1c0.1,0.3,1.4,8.2,12.4,14.5c0.1,0.1,0.2,0.1,0.3,0.1c0.6,0.2,1.3-0.1,1.6-0.7
		C189.2,218.4,189.2,218,189.1,217.7z"/>
	<path class="st2" d="M189.8,219.2c0.3-0.6,0.4-1.2,0.2-1.8c-0.2-0.6-0.6-1.1-1.1-1.4c-9.3-5.3-10.5-11.6-10.6-11.9
		c-0.2-1.3-1.4-2.2-2.7-2c-0.6,0.1-1.2,0.4-1.6,1c-0.4,0.5-0.5,1.1-0.4,1.8c0.1,0.4,1.5,8.7,12.9,15.2c0.2,0.1,0.4,0.2,0.6,0.2
		c0.2,0.1,0.4,0.1,0.6,0.1C188.6,220.4,189.4,220,189.8,219.2z M187.4,219.4c-0.1,0-0.2-0.1-0.3-0.1c-11-6.3-12.4-14.2-12.4-14.5
		c-0.1-0.4,0-0.8,0.3-1.1c0.2-0.3,0.6-0.5,0.9-0.6c0.1,0,0.2,0,0.2,0c0.7,0,1.3,0.5,1.4,1.2c0.1,0.3,1.4,7,11,12.5
		c0.3,0.2,0.6,0.5,0.7,0.9c0.1,0.4,0,0.8-0.1,1.1C188.7,219.3,188,219.6,187.4,219.4z"/>
	<path class="st8" d="M199.1,242.8c-0.7,0.3-1,1.2-0.7,1.9c0.2,0.5,0.7,0.8,1.3,0.8c0.2,0,0.4,0,0.6-0.1c0.3-0.1,7.5-3.6,10.6-15.9
		c0-0.1,0-0.2,0-0.4c0-0.6-0.5-1.2-1.1-1.4c-0.1,0-0.2,0-0.3,0c-0.7,0-1.2,0.4-1.4,1.1C205.4,239.6,199.3,242.7,199.1,242.8z"/>
	<path class="st2" d="M198.7,242c-1.2,0.6-1.7,2-1.1,3.2c0.4,0.8,1.2,1.4,2.2,1.4c0.4,0,0.7-0.1,1-0.2c0.3-0.2,8-3.8,11.1-16.5
		c0.1-0.2,0.1-0.4,0.1-0.6c0-1.1-0.8-2-1.8-2.3c-0.2,0-0.4-0.1-0.6-0.1c-1.1,0-2.1,0.7-2.3,1.8C204.6,238.9,198.9,241.8,198.7,242z
		 M209.5,227.7c0.1,0,0.2,0,0.3,0c0.6,0.2,1.1,0.7,1.1,1.4c0,0.1,0,0.2,0,0.4c-3.1,12.3-10.3,15.8-10.6,15.9
		c-0.2,0.1-0.4,0.1-0.6,0.1c-0.6,0-1.1-0.3-1.3-0.8c-0.3-0.7,0-1.6,0.7-1.9c0.3-0.1,6.3-3.2,9-14
		C208.3,228.2,208.8,227.7,209.5,227.7z"/>
	<path class="st6" d="M220.2,174.4c0.7-0.3,1-1.2,0.7-1.9c-0.2-0.5-0.7-0.8-1.3-0.8c-0.2,0-0.4,0-0.6,0.1
		c-0.3,0.1-7.6,3.6-10.8,15.8c0,0.1,0,0.2,0,0.4c0,0.6,0.4,1.2,1.1,1.4c0.8,0.2,1.6-0.3,1.7-1C213.9,177.6,220,174.6,220.2,174.4z"
		/>
	<path class="st2" d="M220.7,175.3c1.2-0.5,1.7-2,1.2-3.2c-0.4-0.9-1.2-1.4-2.2-1.4c-0.3,0-0.7,0.1-1,0.2c-0.3,0.1-8,3.7-11.3,16.4
		c-0.1,0.2-0.1,0.4-0.1,0.6c0,1.1,0.7,2,1.8,2.3c0.2,0.1,0.4,0.1,0.6,0.1c1.1,0,2-0.7,2.3-1.8C214.7,178.3,220.4,175.4,220.7,175.3z
		 M209.3,189.4c-0.6-0.2-1.1-0.7-1.1-1.4c0-0.1,0-0.3,0-0.4c3.2-12.3,10.4-15.7,10.8-15.8c0.2-0.1,0.4-0.1,0.6-0.1
		c0.6,0,1.1,0.3,1.3,0.8c0.3,0.7,0,1.6-0.7,1.9c-0.3,0.1-6.4,3.2-9.2,13.9C210.9,189.1,210.1,189.6,209.3,189.4z"/>
	<path class="st8" d="M98.7,191c-0.6-0.5-1.5-0.5-2,0.1c-7.1,7.9-13.7,8.2-14.4,8.2l-0.2,0c-0.8,0-1.4,0.6-1.4,1.4
		c0,0.4,0.1,0.8,0.4,1c0.3,0.3,0.6,0.5,1,0.5c0,0,0.1,0,0.2,0c1.4,0,8.8-0.4,16.6-9.1c0.1-0.1,0.2-0.2,0.2-0.3
		C99.3,192.1,99.1,191.4,98.7,191z"/>
	<path class="st2" d="M99.3,190.3c-0.4-0.4-1-0.6-1.6-0.6c-0.7,0-1.3,0.3-1.8,0.8c-6.8,7.6-13,7.9-13.7,7.9l-0.2,0
		c-1.3,0-2.3,1-2.4,2.3c0,0.6,0.2,1.2,0.6,1.7c0.4,0.5,1,0.8,1.7,0.8c0,0,0.1,0,0.2,0c1.5,0,9.3-0.5,17.3-9.4
		c0.1-0.2,0.3-0.3,0.4-0.5C100.3,192.2,100.1,191,99.3,190.3z M98.8,193c-7.8,8.7-15.2,9.1-16.6,9.1c-0.1,0-0.2,0-0.2,0
		c-0.4,0-0.7-0.2-1-0.5c-0.3-0.3-0.4-0.7-0.4-1c0-0.8,0.7-1.4,1.4-1.4l0.2,0c0.7,0,7.3-0.2,14.4-8.2c0.5-0.6,1.5-0.6,2-0.1
		c0.5,0.4,0.6,1.1,0.3,1.7C98.9,192.8,98.9,192.9,98.8,193z"/>
	<path class="st7" d="M49.2,213.1c0.2,0.2,0.5,0.2,0.8,0.2c0.5,0,0.9-0.2,1.2-0.6c6.1-9.3,12.9-10.2,13.2-10.2
		c0.8-0.1,1.4-0.8,1.3-1.6c-0.1-0.7-0.7-1.3-1.4-1.3c0,0-0.1,0-0.1,0c-0.3,0-8.3,0.9-15.3,11.5c-0.1,0.1-0.1,0.2-0.2,0.3
		C48.4,212.1,48.7,212.8,49.2,213.1z"/>
	<path class="st2" d="M47.7,211.2c-0.3,1,0.1,2.2,1,2.8c0.4,0.3,0.8,0.4,1.3,0.4c0.8,0,1.6-0.4,2-1.1c5.9-8.9,12.2-9.8,12.5-9.8
		c1.3-0.1,2.3-1.3,2.1-2.6c-0.1-1.3-1.3-2.3-2.6-2.1c-0.4,0-8.8,1-16,12C47.9,210.8,47.8,211,47.7,211.2z M48.6,211.5
		c0-0.1,0.1-0.2,0.2-0.3c7-10.6,14.9-11.5,15.3-11.5c0,0,0.1,0,0.1,0c0.7,0,1.4,0.6,1.4,1.3c0.1,0.8-0.5,1.5-1.3,1.6
		c-0.3,0-7,0.9-13.2,10.2c-0.3,0.4-0.7,0.6-1.2,0.6c-0.3,0-0.5-0.1-0.8-0.2C48.7,212.8,48.4,212.1,48.6,211.5z"/>
	<path class="st5" d="M46.8,164.1c0-0.1,0-0.2-0.1-0.4c-0.2-0.5-0.7-0.9-1.3-0.9c-0.1,0-0.1,0-0.2,0c-0.8,0.1-1.3,0.8-1.2,1.6
		c1.4,11-3.1,16.1-3.3,16.4c-0.5,0.6-0.5,1.5,0.1,2c0.6,0.5,1.5,0.5,2-0.1C43,182.6,48.5,176.7,46.8,164.1z"/>
	<path class="st2" d="M45.1,161.9c-1.3,0.2-2.2,1.4-2.1,2.7c1.4,10.6-2.8,15.4-3,15.6c-0.9,1-0.9,2.5,0.1,3.4c0.4,0.4,1,0.7,1.6,0.7
		c0.7,0,1.3-0.3,1.7-0.7c0.2-0.3,6-6.5,4.3-19.5c0-0.2-0.1-0.4-0.2-0.6C47.2,162.4,46.2,161.8,45.1,161.9z M40.7,182.8
		c-0.6-0.5-0.6-1.4-0.1-2c0.2-0.2,4.7-5.3,3.3-16.4c-0.1-0.8,0.5-1.5,1.2-1.6c0.1,0,0.1,0,0.2,0c0.6,0,1.1,0.3,1.3,0.9
		c0,0.1,0.1,0.2,0.1,0.4c1.6,12.6-3.8,18.5-4,18.7C42.2,183.4,41.3,183.4,40.7,182.8z"/>
	<path class="st7" d="M64.9,145.2c-0.2-0.2-0.5-0.3-0.8-0.3c-0.3,0-0.7,0.1-0.9,0.3c-0.6,0.5-0.7,1.4-0.2,2c7.1,8.6,6,15.3,6,15.6
		c-0.1,0.8,0.4,1.5,1.1,1.7c0.8,0.2,1.5-0.4,1.7-1.1c0.1-0.3,1.5-8.2-6.6-18C65.1,145.3,65,145.3,64.9,145.2z"/>
	<path class="st2" d="M65.4,144.4c-0.9-0.6-2.1-0.6-2.9,0.1c-1,0.8-1.2,2.4-0.3,3.4c6.8,8.2,5.8,14.5,5.8,14.8
		c-0.2,1.3,0.6,2.5,1.9,2.8c0.2,0,0.3,0,0.5,0c1.1,0,2.1-0.8,2.3-1.9c0.1-0.4,1.6-8.7-6.8-18.8C65.7,144.7,65.6,144.5,65.4,144.4z
		 M71.7,163.4c-0.2,0.8-0.9,1.3-1.7,1.1c-0.8-0.2-1.3-0.9-1.1-1.7c0.1-0.3,1.2-7-6-15.6c-0.5-0.6-0.4-1.5,0.2-2
		c0.3-0.2,0.6-0.3,0.9-0.3c0.3,0,0.6,0.1,0.8,0.3c0.1,0.1,0.2,0.2,0.3,0.3C73.2,155.2,71.8,163.1,71.7,163.4z"/>
	<path class="st6" d="M44.6,132.1c0.1,0,0.1,0,0.2,0c0.7,0,1.3-0.5,1.4-1.2c0-0.4-0.1-0.8-0.3-1.1c-0.2-0.3-0.6-0.5-1-0.5
		c0,0-0.4,0-1,0c-2.5,0-9.1,0.8-16.5,7.8c-0.1,0.1-0.2,0.2-0.2,0.3c-0.3,0.6-0.3,1.3,0.2,1.7c0.5,0.6,1.5,0.6,2,0.1
		c6.7-6.3,12.3-7,14.5-7C44.3,132.1,44.5,132.1,44.6,132.1z"/>
	<path class="st2" d="M44.5,133c1.3,0.2,2.5-0.8,2.7-2.1c0.1-0.6-0.1-1.3-0.5-1.8c-0.4-0.5-1-0.8-1.6-0.9c-0.4,0-8.8-1-18.3,8
		c-0.2,0.1-0.3,0.3-0.4,0.5c-0.6,0.9-0.4,2.1,0.3,2.9c0.5,0.5,1.1,0.7,1.7,0.7c0.6,0,1.2-0.2,1.6-0.7c6.6-6.2,12.2-6.7,13.8-6.7
		C44.2,133,44.4,133,44.5,133z M27.4,139c-0.4-0.5-0.5-1.2-0.2-1.7c0.1-0.1,0.1-0.2,0.2-0.3c7.4-7,14-7.8,16.5-7.8c0.6,0,0.9,0,1,0
		c0.4,0,0.7,0.2,1,0.5c0.2,0.3,0.3,0.7,0.3,1.1c-0.1,0.7-0.7,1.2-1.4,1.2c-0.1,0-0.1,0-0.2,0c-0.1,0-0.3,0-0.7,0
		c-2.1,0-7.8,0.7-14.5,7C28.9,139.6,27.9,139.6,27.4,139z"/>
	<path class="st8" d="M61.9,103c0,0.8,0.6,1.4,1.4,1.5c11.1,0.2,15.5,5.4,15.7,5.6c0.5,0.6,1.4,0.7,2,0.2c0.3-0.2,0.5-0.6,0.5-1
		c0-0.4-0.1-0.8-0.3-1.1c-0.2-0.3-5.2-6.5-17.9-6.7c0,0,0,0,0,0c-0.1,0-0.3,0-0.4,0C62.3,101.8,61.9,102.4,61.9,103z"/>
	<path class="st2" d="M81.6,111.1c0.5-0.4,0.8-1,0.9-1.6c0.1-0.6-0.1-1.3-0.5-1.8c-0.2-0.3-5.5-6.9-18.7-7.1c-0.2,0-0.4,0-0.6,0.1
		c-1,0.3-1.8,1.2-1.8,2.3c0,1.3,1,2.4,2.3,2.4c10.7,0.2,14.8,5.1,15,5.3c0.5,0.6,1.1,0.9,1.9,0.9C80.6,111.6,81.1,111.4,81.6,111.1z
		 M63.3,101.6C63.3,101.6,63.3,101.6,63.3,101.6c12.7,0.2,17.7,6.5,17.9,6.7c0.2,0.3,0.3,0.7,0.3,1.1c0,0.4-0.2,0.7-0.5,1
		c-0.6,0.5-1.5,0.4-2-0.2c-0.2-0.2-4.6-5.5-15.7-5.6c-0.8,0-1.4-0.7-1.4-1.5c0-0.6,0.5-1.2,1.1-1.4
		C63.1,101.6,63.2,101.6,63.3,101.6z"/>
	<path class="st7" d="M45.9,70.5c-0.2-0.1-0.5-0.2-0.8-0.2c-0.5,0-1,0.3-1.2,0.7c-0.2,0.3-4.3,7.2-0.2,19.1c0,0.1,0.1,0.2,0.2,0.3
		c0.4,0.5,1,0.8,1.7,0.5c0.7-0.3,1.1-1.1,0.9-1.8c-3.7-10.5-0.3-16.4-0.1-16.7C46.8,71.8,46.6,70.9,45.9,70.5z"/>
	<path class="st2" d="M46.4,69.7c-0.4-0.2-0.8-0.4-1.3-0.4c-0.8,0-1.6,0.4-2,1.1c-0.2,0.3-4.6,7.6-0.3,19.9c0.1,0.2,0.2,0.4,0.3,0.6
		c0.4,0.7,1.2,1.1,2,1.1c0.3,0,0.5,0,0.8-0.1c1.2-0.4,1.9-1.8,1.5-3c-3.5-10.1-0.3-15.6-0.2-15.9C47.9,71.9,47.5,70.4,46.4,69.7z
		 M46.4,72.5c-0.1,0.2-3.5,6.2,0.1,16.7c0.3,0.7-0.1,1.6-0.9,1.8c-0.6,0.2-1.3,0-1.7-0.5c-0.1-0.1-0.1-0.2-0.2-0.3
		c-4.2-12,0-18.8,0.2-19.1c0.3-0.4,0.7-0.7,1.2-0.7c0.3,0,0.5,0.1,0.8,0.2C46.6,70.9,46.8,71.8,46.4,72.5z"/>
	<path class="st5" d="M80.1,61.5c0,0.1,0.1,0.2,0.1,0.4c0.3,0.6,0.9,0.9,1.6,0.8c0.8-0.2,1.3-0.9,1.1-1.7c-2.2-10.9,2-16.3,2.1-16.5
		c0.5-0.6,0.4-1.5-0.2-2c-0.3-0.2-0.6-0.3-0.9-0.3c-0.4,0-0.8,0.2-1.1,0.5C82.6,42.8,77.6,49.1,80.1,61.5z"/>
	<path class="st2" d="M79.3,62.3c0.4,0.8,1.2,1.3,2.1,1.3c0.2,0,0.3,0,0.5,0c1.3-0.3,2.1-1.5,1.9-2.8c-2.1-10.5,1.8-15.5,2-15.7
		c0.8-1,0.7-2.5-0.3-3.4c-0.4-0.4-1-0.5-1.5-0.5c-0.7,0-1.4,0.3-1.8,0.9c-0.2,0.3-5.5,6.9-2.9,19.7C79.2,61.9,79.2,62.1,79.3,62.3z
		 M84.8,42.4c0.6,0.5,0.7,1.4,0.2,2c-0.2,0.2-4.3,5.6-2.1,16.5c0.2,0.8-0.3,1.5-1.1,1.7c-0.6,0.1-1.3-0.2-1.6-0.8
		c-0.1-0.1-0.1-0.2-0.1-0.4c-2.5-12.4,2.5-18.7,2.7-18.9c0.3-0.3,0.7-0.5,1.1-0.5C84.3,42.1,84.6,42.2,84.8,42.4z"/>
	<path class="st7" d="M113.2,82.4c0-0.4-0.2-0.7-0.5-1c-0.2-0.2-4.6-4.2-13.8-4.2c-1.6,0-3.3,0.1-4.9,0.4c-0.1,0-0.2,0.1-0.4,0.1
		c-0.6,0.3-0.9,0.9-0.9,1.5c0.1,0.8,0.8,1.3,1.6,1.2c1.6-0.2,3.1-0.3,4.6-0.3c7.9,0,11.6,3.3,11.8,3.4c0.6,0.5,1.5,0.5,2-0.1
		C113.1,83.1,113.2,82.7,113.2,82.4z"/>
	<path class="st2" d="M93.9,76.6c-0.2,0-0.4,0.1-0.6,0.2c-1,0.4-1.6,1.5-1.4,2.5c0.2,1.3,1.4,2.2,2.7,2c1.5-0.2,3-0.3,4.4-0.3
		c7.5,0,11,3,11.2,3.2c0.4,0.4,1,0.6,1.6,0.6c0.7,0,1.3-0.3,1.8-0.8c0.4-0.5,0.7-1.1,0.6-1.7c0-0.6-0.3-1.2-0.8-1.7
		c-0.2-0.2-4.9-4.4-14.4-4.4C97.3,76.2,95.6,76.4,93.9,76.6z M110.8,83.5c-0.2-0.1-3.9-3.4-11.8-3.4c-1.5,0-3,0.1-4.6,0.3
		c-0.8,0.1-1.5-0.4-1.6-1.2c-0.1-0.6,0.3-1.3,0.9-1.5c0.1,0,0.2-0.1,0.4-0.1c1.7-0.2,3.4-0.4,4.9-0.4c9.2,0,13.6,4,13.8,4.2
		c0.3,0.3,0.4,0.6,0.5,1c0,0.4-0.1,0.7-0.4,1C112.3,84,111.4,84,110.8,83.5z"/>
	<path class="st8" d="M118.9,37.4c0.2,0.1,0.5,0.2,0.8,0.2c0.5,0,0.9-0.3,1.2-0.7c0.2-0.3,4.4-7.1,0.4-19.1c0-0.1-0.1-0.2-0.2-0.3
		c-0.3-0.4-0.7-0.6-1.2-0.6c-0.2,0-0.3,0-0.5,0.1c-0.7,0.3-1.2,1.1-0.9,1.8c3.5,10.6,0.1,16.4-0.1,16.7
		C118,36.1,118.2,37,118.9,37.4z"/>
	<path class="st2" d="M118.4,38.2c0.4,0.2,0.8,0.4,1.3,0.4c0.8,0,1.6-0.4,2-1.1c0.2-0.3,4.6-7.5,0.5-19.9c-0.1-0.2-0.2-0.4-0.3-0.6
		c-0.4-0.7-1.2-1.1-2-1.1c-0.3,0-0.5,0-0.8,0.1c-1.2,0.4-1.9,1.8-1.5,3c3.4,10.1,0.2,15.6,0,15.9C116.9,36.1,117.2,37.5,118.4,38.2z
		 M118.4,35.4c0.1-0.2,3.6-6.1,0.1-16.7c-0.3-0.7,0.2-1.6,0.9-1.8c0.1,0,0.3-0.1,0.5-0.1c0.5,0,0.9,0.2,1.2,0.6
		c0.1,0.1,0.1,0.2,0.2,0.3c4,12-0.2,18.8-0.4,19.1c-0.3,0.4-0.7,0.7-1.2,0.7c-0.3,0-0.5-0.1-0.8-0.2C118.2,37,118,36.1,118.4,35.4z"
		/>
	<path class="st6" d="M131.5,65.1c0.2,0.1,4.2,3.4,12.2,3.4c2.2,0,4.4-0.2,6.8-0.7c0.1,0,0.2-0.1,0.4-0.1c0.6-0.3,0.9-0.9,0.8-1.6
		c-0.2-0.8-0.9-1.3-1.7-1.1c-2.2,0.4-4.2,0.7-6.2,0.7c-6.6,0-10-2.5-10.3-2.8c-0.3-0.2-0.6-0.3-0.9-0.3c-0.4,0-0.8,0.2-1.1,0.5
		c-0.2,0.3-0.4,0.7-0.3,1C131,64.5,131.2,64.9,131.5,65.1z"/>
	<path class="st2" d="M130.5,62.5c-0.4,0.5-0.6,1.1-0.5,1.8c0.1,0.6,0.4,1.2,0.9,1.6c0.2,0.1,4.5,3.6,12.8,3.6
		c2.2,0,4.6-0.2,6.9-0.7c0.2,0,0.4-0.1,0.6-0.2c1-0.5,1.5-1.6,1.3-2.6c-0.2-1.1-1.2-1.9-2.3-1.9c-0.2,0-0.3,0-0.5,0
		c-2.1,0.4-4.1,0.7-6,0.7c-6.4,0-9.6-2.4-9.7-2.5c-0.4-0.3-1-0.5-1.5-0.5C131.7,61.6,131,61.9,130.5,62.5z M131.3,63.1
		c0.3-0.3,0.7-0.5,1.1-0.5c0.3,0,0.6,0.1,0.9,0.3c0.4,0.3,3.7,2.8,10.3,2.8c2,0,4.1-0.2,6.2-0.7c0.8-0.2,1.5,0.4,1.7,1.1
		c0.1,0.6-0.2,1.3-0.8,1.6c-0.1,0.1-0.2,0.1-0.4,0.1c-2.3,0.5-4.6,0.7-6.8,0.7c-8,0-12-3.3-12.2-3.4c-0.3-0.2-0.5-0.6-0.5-1
		C130.9,63.8,131,63.4,131.3,63.1z"/>
	<path class="st7" d="M157.2,25.8c0.3,0.7,1.1,1.1,1.8,0.9c3.3-1.1,6.4-1.7,9.3-1.7c4.6,0,7.1,1.4,7.3,1.6c0.2,0.1,0.5,0.2,0.7,0.2
		c0.5,0,1-0.3,1.2-0.7c0.2-0.3,0.3-0.7,0.2-1.1c-0.1-0.4-0.3-0.7-0.6-0.9c-0.1-0.1-3.3-2-8.9-2c-3.3,0-6.7,0.6-10.2,1.9
		c-0.1,0-0.2,0.1-0.3,0.2C157.3,24.5,157,25.2,157.2,25.8z"/>
	<path class="st2" d="M158.6,27.7c0.3,0,0.5,0,0.8-0.1c3.2-1.1,6.2-1.7,9-1.7c4.4,0,6.8,1.4,6.9,1.4c0.4,0.2,0.8,0.3,1.2,0.3
		c0.8,0,1.6-0.4,2-1.1c0.3-0.5,0.4-1.2,0.3-1.8c-0.1-0.6-0.5-1.1-1.1-1.5c-0.1-0.1-3.5-2.1-9.4-2.1c-3.4,0-6.9,0.6-10.6,1.9
		c-0.2,0.1-0.4,0.2-0.6,0.3c-0.9,0.6-1.3,1.7-0.9,2.8C156.7,27.1,157.6,27.7,158.6,27.7z M157.8,24.2c0.1-0.1,0.2-0.1,0.3-0.2
		c3.5-1.2,7-1.9,10.2-1.9c5.6,0,8.8,1.9,8.9,2c0.3,0.2,0.6,0.5,0.6,0.9c0.1,0.4,0,0.8-0.2,1.1c-0.3,0.4-0.7,0.7-1.2,0.7
		c-0.3,0-0.5-0.1-0.7-0.2c-0.3-0.2-2.8-1.6-7.3-1.6c-2.9,0-6.1,0.6-9.3,1.7c-0.7,0.3-1.6-0.2-1.8-0.9
		C157,25.2,157.3,24.5,157.8,24.2z"/>
	<path class="st7" d="M185.1,88.8c0.2,0.1,0.4,0.1,0.6,0.1c0.6,0,1.1-0.3,1.3-0.9c0.1-0.3,3.2-7.7-2.8-18.9
		c-0.1-0.1-0.1-0.2-0.2-0.3c-0.3-0.3-0.7-0.5-1.1-0.5c-0.2,0-0.5,0.1-0.7,0.2c-0.7,0.4-1,1.2-0.6,1.9c5.2,9.8,2.8,16.2,2.7,16.5
		C184,87.6,184.4,88.5,185.1,88.8z"/>
	<path class="st2" d="M184.7,89.7c0.3,0.1,0.6,0.2,0.9,0.2c1,0,1.8-0.6,2.2-1.5c0.1-0.3,3.3-8.2-2.8-19.7c-0.1-0.2-0.2-0.4-0.4-0.5
		c-0.7-0.8-1.9-1-2.9-0.5c-1.2,0.6-1.6,2.1-1,3.2c5,9.4,2.7,15.4,2.6,15.6C182.9,87.7,183.5,89.1,184.7,89.7z M184.3,86.9
		c0.1-0.3,2.6-6.6-2.7-16.5c-0.4-0.7-0.1-1.6,0.6-1.9c0.2-0.1,0.4-0.2,0.7-0.2c0.4,0,0.8,0.2,1.1,0.5c0.1,0.1,0.2,0.2,0.2,0.3
		c6,11.2,2.9,18.6,2.8,18.9c-0.2,0.5-0.7,0.9-1.3,0.9c-0.2,0-0.4,0-0.6-0.1C184.4,88.5,184,87.6,184.3,86.9z"/>
	<path class="st6" d="M212.6,41.4c0.1,0,0.1,0,0.2,0c0.7,0,1.3-0.5,1.4-1.2c0-0.4-0.1-0.8-0.3-1.1c-0.2-0.3-0.6-0.5-1-0.5
		c0,0-0.4,0-1,0c-2.5,0-9.1,0.8-16.5,7.8c-0.1,0.1-0.2,0.2-0.2,0.3c-0.3,0.6-0.3,1.3,0.2,1.7c0.5,0.6,1.5,0.6,2,0.1
		c6.7-6.3,12.3-7,14.5-7C212.3,41.4,212.5,41.4,212.6,41.4z"/>
	<path class="st2" d="M212.5,42.3c1.3,0.2,2.5-0.8,2.7-2.1c0.1-0.6-0.1-1.3-0.5-1.8c-0.4-0.5-1-0.8-1.6-0.9c-0.4,0-8.8-1-18.3,8
		c-0.2,0.1-0.3,0.3-0.4,0.5c-0.6,0.9-0.4,2.1,0.3,2.9c0.5,0.5,1.1,0.7,1.7,0.7c0.6,0,1.2-0.2,1.6-0.7c6.6-6.3,12.2-6.7,13.8-6.7
		C212.2,42.3,212.4,42.3,212.5,42.3z M195.4,48.3c-0.4-0.5-0.5-1.2-0.2-1.7c0.1-0.1,0.1-0.2,0.2-0.3c7.4-7,14-7.8,16.5-7.8
		c0.6,0,0.9,0,1,0c0.4,0.1,0.7,0.2,1,0.5c0.2,0.3,0.3,0.7,0.3,1.1c-0.1,0.7-0.7,1.2-1.4,1.2c-0.1,0-0.1,0-0.2,0c-0.1,0-0.3,0-0.7,0
		c-2.1,0-7.8,0.7-14.5,7C196.9,48.9,195.9,48.9,195.4,48.3z"/>
	<path class="st5" d="M236.2,69.1c-0.1-0.1-0.1-0.2-0.2-0.3c-0.3-0.3-0.7-0.5-1.1-0.5c-0.2,0-0.5,0.1-0.7,0.2
		c-0.7,0.4-1,1.2-0.6,1.9c5.1,9.9,2.6,16.2,2.5,16.5c-0.3,0.7,0,1.6,0.7,1.9c0.2,0.1,0.4,0.1,0.6,0.1c0.6,0,1.1-0.3,1.3-0.9
		C238.9,87.7,242,80.3,236.2,69.1z"/>
	<path class="st2" d="M236.6,68.1c-0.7-0.8-1.9-1-2.9-0.5c-1.2,0.6-1.6,2.1-1,3.2c4.9,9.5,2.6,15.4,2.5,15.7c-0.5,1.2,0,2.6,1.2,3.1
		c0.3,0.1,0.6,0.2,1,0.2c1,0,1.8-0.6,2.2-1.4c0.1-0.3,3.4-8.1-2.6-19.8C236.9,68.5,236.8,68.3,236.6,68.1z M237.4,88.9
		c-0.2,0-0.4,0-0.6-0.1c-0.7-0.3-1.1-1.2-0.7-1.9c0.1-0.3,2.6-6.6-2.5-16.5c-0.4-0.7-0.1-1.6,0.6-1.9c0.2-0.1,0.4-0.2,0.7-0.2
		c0.4,0,0.8,0.2,1.1,0.5c0.1,0.1,0.2,0.2,0.2,0.3c5.8,11.2,2.7,18.6,2.6,19C238.5,88.6,238,88.9,237.4,88.9z"/>
	<path class="st8" d="M207.7,120.6c0.8,0.2,1.6-0.3,1.7-1c2.7-10.8,8.8-13.9,9.1-14c0.7-0.3,1-1.2,0.7-1.9c-0.2-0.5-0.7-0.8-1.3-0.8
		c-0.2,0-0.4,0-0.6,0.1c-0.3,0.1-7.6,3.6-10.7,15.9c0,0.1,0,0.2,0,0.4C206.6,119.9,207,120.4,207.7,120.6z"/>
	<path class="st2" d="M207.4,121.5c0.2,0,0.4,0.1,0.6,0.1c1.1,0,2-0.7,2.3-1.8c2.6-10.4,8.3-13.2,8.6-13.4c1.2-0.6,1.7-2,1.2-3.2
		c-0.4-0.8-1.2-1.4-2.2-1.4c-0.3,0-0.7,0.1-1,0.2c-0.3,0.2-8,3.8-11.2,16.5c0,0.2-0.1,0.4-0.1,0.6
		C205.6,120.3,206.4,121.2,207.4,121.5z M206.6,118.8c3.1-12.3,10.4-15.7,10.7-15.9c0.2-0.1,0.4-0.1,0.6-0.1c0.6,0,1.1,0.3,1.3,0.8
		c0.3,0.7,0,1.6-0.7,1.9c-0.3,0.1-6.4,3.2-9.1,14c-0.2,0.8-1,1.2-1.7,1c-0.6-0.2-1.1-0.7-1.1-1.4C206.6,119.1,206.6,119,206.6,118.8
		z"/>
	<path class="st7" d="M251.1,103.3c5.3-2.9,9.6-3.6,12.2-3.6c2.5,0,4,0.5,4.2,0.6c0.7,0.3,1.6-0.1,1.9-0.8c0.1-0.4,0.1-0.7,0-1.1
		c-0.2-0.4-0.4-0.6-0.8-0.8c-0.1,0-2-0.8-5.2-0.8c-3,0-7.8,0.7-13.6,3.9c-0.1,0.1-0.2,0.1-0.3,0.2c-0.5,0.4-0.6,1.2-0.3,1.7
		c0.3,0.5,0.7,0.7,1.3,0.7C250.7,103.5,250.9,103.4,251.1,103.3z"/>
	<path class="st2" d="M251.6,104.1c5.1-2.8,9.2-3.4,11.8-3.4c2.4,0,3.8,0.5,3.8,0.5c0.3,0.1,0.6,0.2,0.9,0.2c1,0,1.8-0.6,2.2-1.5
		c0.2-0.6,0.2-1.2,0-1.8c-0.3-0.6-0.7-1-1.3-1.3c-0.2-0.1-2.2-0.9-5.6-0.9c-3.1,0-8.1,0.7-14.1,4c-0.2,0.1-0.3,0.2-0.5,0.4
		c-0.8,0.8-1,1.9-0.4,2.9c0.4,0.8,1.2,1.2,2.1,1.2C250.8,104.4,251.2,104.3,251.6,104.1z M249.2,102.7c-0.3-0.6-0.2-1.3,0.3-1.7
		c0.1-0.1,0.2-0.2,0.3-0.2c5.8-3.2,10.6-3.9,13.6-3.9c3.2,0,5.2,0.8,5.2,0.8c0.4,0.1,0.6,0.4,0.8,0.8c0.2,0.4,0.2,0.7,0,1.1
		c-0.3,0.7-1.1,1.1-1.9,0.8c-0.2-0.1-1.6-0.6-4.2-0.6c-2.7,0-6.9,0.6-12.2,3.6c-0.2,0.1-0.5,0.2-0.7,0.2
		C249.9,103.5,249.4,103.2,249.2,102.7z"/>
	<path class="st6" d="M259,133.9c6.9,8.7,5.6,15.4,5.6,15.7c-0.2,0.8,0.3,1.5,1.1,1.7c0.8,0.2,1.5-0.3,1.7-1.1
		c0.1-0.3,1.7-8.2-6.1-18.1c-0.1-0.1-0.2-0.2-0.3-0.3c-0.2-0.2-0.5-0.3-0.9-0.3c-0.3,0-0.6,0.1-0.9,0.3
		C258.6,132.3,258.5,133.2,259,133.9z"/>
	<path class="st2" d="M265.5,152.2c0.2,0,0.3,0.1,0.5,0.1c1.1,0,2.1-0.8,2.3-1.9c0.1-0.3,1.8-8.6-6.3-18.9c-0.1-0.2-0.3-0.3-0.4-0.4
		c-0.8-0.6-2.1-0.6-2.9,0c-1,0.8-1.2,2.3-0.4,3.4c6.6,8.4,5.5,14.7,5.4,14.9C263.4,150.7,264.2,151.9,265.5,152.2z M259.3,131.8
		c0.3-0.2,0.6-0.3,0.9-0.3c0.3,0,0.6,0.1,0.9,0.3c0.1,0.1,0.2,0.2,0.3,0.3c7.9,9.9,6.2,17.8,6.1,18.1c-0.2,0.8-1,1.3-1.7,1.1
		c-0.8-0.2-1.3-0.9-1.1-1.7c0.1-0.3,1.3-7-5.6-15.7C258.5,133.2,258.6,132.3,259.3,131.8z"/>
	<path class="st7" d="M234.2,140.7c0.5-0.5,0.5-1.2,0.2-1.7c-0.3-0.4-0.7-0.7-1.2-0.7c-0.3,0-0.5,0.1-0.7,0.2
		c-5.4,3.2-9.8,3.9-12.6,3.9c-2.3,0-3.6-0.5-3.8-0.5c-0.2-0.1-0.3-0.1-0.5-0.1c-0.6,0-1.1,0.4-1.3,0.9c-0.3,0.7,0.1,1.6,0.8,1.8
		c0.1,0,1.8,0.7,4.8,0.7c3.1,0,8.1-0.7,14-4.2C234,140.9,234.1,140.8,234.2,140.7z"/>
	<path class="st2" d="M234.9,141.4c0.8-0.8,0.9-2,0.4-2.9c-0.4-0.7-1.2-1.2-2.1-1.2c-0.4,0-0.8,0.1-1.2,0.3
		c-5.2,3.1-9.5,3.7-12.1,3.7c-2.1,0-3.4-0.4-3.4-0.4c-0.3-0.1-0.5-0.1-0.8-0.1c-1,0-1.9,0.6-2.2,1.5c-0.5,1.2,0.2,2.6,1.4,3.1
		c0.2,0.1,2,0.7,5.1,0.7c3.2,0,8.4-0.8,14.5-4.4C234.6,141.7,234.8,141.6,234.9,141.4z M215.1,144.5c-0.7-0.3-1.1-1.1-0.8-1.8
		c0.2-0.6,0.7-0.9,1.3-0.9c0.2,0,0.3,0,0.5,0.1c0.1,0.1,1.5,0.5,3.8,0.5c2.7,0,7.1-0.7,12.6-3.9c0.2-0.1,0.5-0.2,0.7-0.2
		c0.5,0,1,0.3,1.2,0.7c0.3,0.6,0.2,1.3-0.2,1.7c-0.1,0.1-0.2,0.2-0.3,0.2c-6,3.5-10.9,4.2-14,4.2C217,145.2,215.2,144.5,215.1,144.5
		z"/>
	<path class="st7" d="M267.5,175.8c0.1-0.1,0.1-0.2,0.2-0.3c0.2-0.6,0-1.3-0.6-1.6c-0.2-0.1-0.5-0.2-0.8-0.2c-0.5,0-0.9,0.2-1.2,0.7
		c-6,9.4-12.8,10.4-13,10.4c-0.8,0.1-1.3,0.8-1.3,1.6c0.1,0.8,0.8,1.4,1.6,1.3C252.7,187.5,260.7,186.5,267.5,175.8z"/>
	<path class="st2" d="M268.3,176.3c0.1-0.2,0.2-0.4,0.3-0.6c0.3-1-0.1-2.2-1-2.7c-0.4-0.2-0.8-0.4-1.3-0.4c-0.8,0-1.6,0.4-2,1.1
		c-5.8,9-12.1,9.9-12.3,10c-1.3,0.2-2.2,1.3-2.1,2.6c0.1,1.2,1.2,2.1,2.4,2.1c0.1,0,0.2,0,0.3,0
		C252.8,188.4,261.2,187.4,268.3,176.3z M250.8,186.3c-0.1-0.8,0.5-1.5,1.3-1.6c0.3,0,7-1,13-10.4c0.3-0.4,0.7-0.7,1.2-0.7
		c0.3,0,0.5,0.1,0.8,0.2c0.5,0.3,0.8,1,0.6,1.6c0,0.1-0.1,0.2-0.2,0.3c-6.8,10.7-14.8,11.7-15.1,11.7
		C251.6,187.6,250.9,187,250.8,186.3z"/>
	<path class="st5" d="M232.3,197c-0.1-0.1-0.1-0.2-0.2-0.3c-0.3-0.3-0.6-0.4-1-0.4c-0.2,0-0.5,0.1-0.7,0.2c-0.7,0.4-0.9,1.3-0.6,2
		c5.4,9.7,3.1,16.1,3,16.4c-0.3,0.7,0.1,1.6,0.8,1.9c0.2,0.1,0.4,0.1,0.5,0.1c0.6,0,1.1-0.4,1.3-0.9
		C235.6,215.5,238.5,208.1,232.3,197z"/>
	<path class="st2" d="M232.8,196c-0.7-0.8-2-0.9-2.9-0.4c-1.2,0.6-1.6,2.1-0.9,3.3c5.2,9.4,3,15.3,2.9,15.6
		c-0.5,1.2,0.1,2.6,1.3,3.1c0.3,0.1,0.6,0.2,0.9,0.2c1,0,1.9-0.6,2.2-1.5c0.1-0.3,3.2-8.2-3.2-19.7C233.1,196.3,233,196.2,232.8,196
		z M234.2,216.8c-0.2,0-0.4,0-0.5-0.1c-0.7-0.3-1.1-1.1-0.8-1.9c0.1-0.3,2.4-6.7-3-16.4c-0.4-0.7-0.1-1.6,0.6-2
		c0.2-0.1,0.5-0.2,0.7-0.2c0.4,0,0.8,0.2,1,0.4c0.1,0.1,0.2,0.2,0.2,0.3c6.2,11.1,3.3,18.6,3.2,18.9
		C235.3,216.4,234.8,216.8,234.2,216.8z"/>
</g>
</svg>
